<svg width="300" height="150" viewBox="0 0 300 150" fill="none" xmlns="http://www.w3.org/2000/svg">
    <path fill-rule="evenodd" clip-rule="evenodd" d="M108.276 0.0459471C108.05 0.269555 108.156 2.15982 108.509 4.20967C108.939 6.70271 108.881 8.72437 108.382 8.67266C108.196 8.65319 107.039 8.37944 105.813 8.06406C102.362 7.17656 98.6309 6.88603 94.9921 7.22133C90.1515 7.6672 87.3977 8.32482 82.9652 10.0931C79.6106 11.4312 77.403 12.5568 74.8811 14.2145C68.5741 18.3606 63.2629 23.7708 59.8217 29.5546C57.3249 33.7513 56.5119 36.1053 57.3281 36.7752C57.4989 36.9156 58.8991 37.1855 60.4394 37.3753C61.9797 37.5649 63.367 37.7614 63.5224 37.8118C63.7186 37.8756 63.5697 38.3326 63.0341 39.3097C61.5536 42.0107 60.2258 45.7872 59.4981 49.3676L58.7998 52.8027L59.1808 55.6006C59.6818 59.2806 60.0622 60.6648 60.6111 60.8067C61.3142 60.9887 61.5513 60.6724 61.881 59.1137C62.2933 57.1645 63.2106 54.6677 64.0759 53.1385C65.0528 51.4129 68.4121 46.4685 69.2468 45.5282L69.9422 44.7448L69.3439 45.7213C67.6627 48.466 66.7612 51.4416 66.4634 55.2304C66.25 57.9453 66.2701 58.5975 66.627 60.4905C67.0266 62.6113 67.6783 64.6052 68.1593 65.1784C68.6169 65.7239 68.8943 65.0242 69.0099 63.0327L69.1231 61.0845L69.9987 62.7632C71.6995 66.0229 73.3072 68.1851 75.9985 70.8315C79.5436 74.3177 83.0679 76.5625 87.7299 78.3039L89.3659 78.915L89.0129 79.7364C87.8994 82.3277 86.4218 86.1237 86.0984 87.2245C85.893 87.9235 85.6042 88.5695 85.4567 88.6595C85.0965 88.88 80.2444 88.7904 76.4771 88.4939C67.0727 87.7539 56.3641 85.1247 54.3401 83.0592C53.606 82.3101 52.7179 80.3849 52.7179 79.5433C52.7179 79.2957 52.3181 78.3064 51.8293 77.345C50.4603 74.6516 48.9361 73.6034 47.2082 74.1675C45.288 74.7944 44.7855 76.6346 46.0427 78.4344C47.2764 80.2007 50.9982 82.8522 54.6336 84.5549C58.4036 86.3209 64.5253 87.9032 71.1596 88.8267C74.1204 89.2388 81.6457 89.8469 83.7852 89.8469C85.4821 89.8469 85.4913 89.859 84.9781 91.4299C84.8 91.9749 84.281 93.6297 83.8246 95.107C83.3682 96.5843 82.5961 99.0267 82.1089 100.535C80.5825 105.258 79.9658 109.157 80.3159 111.874C80.6422 114.407 81.169 114.779 85.4151 115.475C86.5352 115.659 87.5278 115.81 87.6213 115.811C87.889 115.812 87.8213 116.639 87.4312 118.127C86.9986 119.779 85.9808 125.721 85.9808 126.595C85.9808 126.997 86.1602 127.327 86.4899 127.531C87.1916 127.965 89.7105 128.519 92.5304 128.86L94.8936 129.145L94.8396 131.488C94.7459 135.53 94.2612 138.726 93.4274 140.797C92.8782 142.161 92.3559 142.438 89.2636 143C86.4849 143.506 86.1107 143.707 86.0238 144.742C85.8898 146.339 87.8141 147.415 89.9565 146.94C93.164 146.23 95.5071 140.964 95.8397 133.718C95.9049 132.302 96.0081 130.731 96.0696 130.226L96.1809 129.307L98.1749 129.167C100.53 129.002 102.292 128.657 102.853 128.251C103.184 128.011 103.289 127.451 103.439 125.098C103.539 123.525 103.663 122.195 103.715 122.144C103.767 122.093 104.188 123.19 104.651 124.583C105.903 128.349 105.64 128.122 108.743 128.122H111.356L111.22 135.229C111.063 143.369 111.152 143.952 112.736 145.208C113.882 146.117 115.783 146.318 116.503 145.607C116.766 145.346 116.981 144.936 116.981 144.694C116.981 143.984 115.783 142.842 114.155 142C113.322 141.569 112.546 141.042 112.43 140.83C112.299 140.59 112.306 138.85 112.449 136.242C112.576 133.93 112.722 131.251 112.773 130.287C112.825 129.324 112.904 128.499 112.948 128.456C112.992 128.412 115.165 128.213 117.777 128.015C123.245 127.598 123.769 127.466 123.769 126.505C123.769 125.712 123.308 123.841 122.431 121.072C121.615 118.497 121.054 116.596 121.054 116.407C121.054 116.326 122.277 116.259 123.773 116.259H126.491L126.94 115.532C127.542 114.555 127.514 113.157 126.849 110.979C126.552 110.005 125.824 107.647 125.232 105.739C123.924 101.523 123.31 98.8152 122.468 93.5402C121.767 89.1472 121.769 89.134 123.134 89.6048C126.971 90.9278 142.94 87.0125 151.235 82.7147C153.913 81.3272 155.198 80.5639 159.447 77.8386C161.127 76.7606 161.181 76.7557 161.805 77.6232C162.632 78.7739 165.393 80.8466 168.459 82.6201C172.64 85.0379 176.813 86.3992 182.715 87.2702C186.619 87.8465 194.602 88.3889 196.977 88.2391C197.782 88.1886 198.441 88.1823 198.441 88.2253C198.441 88.3983 193.137 96.5261 192.343 97.5691C191.875 98.1847 190.133 100.501 188.473 102.717C186.812 104.933 184.421 107.804 183.16 109.096C180.363 111.962 177.629 115.094 177.398 115.7C177.266 116.046 177.418 116.324 178.068 116.931C178.531 117.361 179.002 117.875 179.115 118.072C179.38 118.533 182.069 120.533 185.43 122.767C188.609 124.88 193.014 126.834 196.835 127.824C198.223 128.184 199.12 128.529 199.12 128.702C199.12 129.275 197.512 134.558 196.723 136.578C195.409 139.942 195.019 140.213 190.342 141.001C187.521 141.476 186.356 141.846 185.401 142.567C182.313 144.896 183.74 148.693 187.709 148.71C188.34 148.713 189.343 148.551 189.938 148.35C192.105 147.62 195.129 144.112 196.497 140.741C196.791 140.018 197.401 138.636 197.853 137.67C198.305 136.705 199.025 134.741 199.452 133.305C200.757 128.924 200.77 128.896 201.522 128.967C203.783 129.182 210.315 129.242 211.452 129.058C212.199 128.938 212.846 128.873 212.89 128.915C212.976 128.996 212.275 131.973 211.573 134.501C211.247 135.679 211.135 136.836 211.126 139.155C211.1 145.205 212.199 147.893 215.318 149.412C216.67 150.071 216.849 150.105 217.675 149.86C218.229 149.696 218.793 149.304 219.16 148.828C220.67 146.87 219.814 144.672 216.698 142.503C215.682 141.795 214.366 140.752 213.773 140.185C212.744 139.199 212.697 139.1 212.697 137.914C212.697 137.232 213.002 135.531 213.375 134.133C213.748 132.735 214.213 130.917 214.409 130.092L214.764 128.593L215.937 128.268C216.581 128.09 217.924 127.775 218.919 127.568C221.598 127.012 225.989 125.532 228.127 124.465C230.746 123.157 238.769 117.123 239.434 115.96C239.516 115.816 239.049 114.993 238.396 114.132C235.483 110.292 231.224 102.435 229.782 98.2406C229.317 96.8864 228.595 94.861 228.178 93.7396C227.762 92.6184 227.169 90.8394 226.86 89.7865C226.304 87.8891 225.142 81.5195 225.142 80.3714V79.7745H229.077C234.029 79.7745 236.288 79.3788 241.862 77.5355C247.506 75.6687 249.948 73.0826 251.69 67.128C252.351 64.8693 252.497 63.9614 252.606 61.4203C252.678 59.7583 252.636 57.1898 252.513 55.7125L252.29 53.0266L253.059 50.7882C254.519 46.5343 255.076 43.218 255.071 38.8132C255.064 32.8955 253.881 27.8745 251.264 22.6546C246.614 13.3792 238.565 6.5044 228.17 2.92823C213.948 -1.96474 197.567 0.9556 186.436 10.3686C177.755 17.7101 172.97 27.8714 173.042 38.8132C173.071 43.152 174.298 49.2758 175.83 52.7295C176.224 53.6177 176.483 54.5238 176.419 54.7899C176.356 55.0511 175.896 56.3339 175.397 57.6404C174.206 60.7568 173.902 62.9123 174.072 67.0084C174.256 71.4226 174.792 73.6148 176.088 75.252C177.257 76.7292 179.281 77.9928 181.547 78.6598C182.438 78.9224 183.463 79.2303 183.825 79.3445C186.167 80.0829 190.175 80.5051 196.132 80.6409L202.308 80.7817L200.716 83.9713L199.125 87.1609L194.54 87.1551C183.083 87.1408 175.551 85.5619 168.925 81.7852C166.099 80.1747 165.177 79.5173 163.444 77.8775L161.933 76.4474L162.55 75.6475C163.708 74.1456 164.596 71.9451 164.605 70.5566C164.612 69.4491 164.526 69.1962 163.948 68.5981C162.656 67.2636 160.959 67.9338 159.991 70.1605C159.294 71.7633 159.313 73.1264 160.052 74.563C160.382 75.2052 160.653 75.7867 160.653 75.855C160.653 75.9235 159.762 76.5459 158.673 77.2385C157.584 77.931 156.172 78.8317 155.535 79.24C153.437 80.5852 148.579 83.0816 146.736 83.7612C142.746 85.2324 141.702 85.6037 140.401 86.0134C138.957 86.4677 132.487 88.0666 130.218 88.5299C127.228 89.1403 121.769 88.7092 121.706 87.8577C121.597 86.3802 121.819 80.6734 122.086 78.0957C122.265 76.3722 122.411 74.8896 122.411 74.8009C122.411 74.7125 123.201 74.116 124.165 73.4756C129.987 69.6103 135.682 63.405 138.413 57.9509C139.364 56.0528 140.642 52.8256 141.094 51.1799C141.306 50.4104 141.567 49.781 141.675 49.781C141.783 49.781 141.871 51.1195 141.871 52.7553C141.871 55.709 141.864 55.7492 140.851 58.5924C140.289 60.167 139.888 61.5481 139.959 61.6615C140.03 61.775 140.34 61.8679 140.648 61.8679C141.259 61.8679 143.819 59.4966 145.859 57.0414C147.26 55.3542 149.338 50.8395 149.871 48.3261C151.055 42.733 151.212 41.4565 151.069 38.5894C150.789 33.0122 148.998 25.2877 147.36 22.5935C146.908 21.8503 145.856 20.448 145.021 19.4768C143.017 17.144 141.594 14.7327 140.75 12.2423C139.975 9.95499 139.899 8.76868 140.417 7.04406C140.704 6.08941 140.902 5.81052 141.435 5.61131C141.826 5.46559 142.098 5.20058 142.098 4.96555C142.098 4.62399 141.886 4.56691 140.624 4.56691C139.14 4.56691 135.931 5.16835 133.839 5.83872C131.582 6.5617 126.539 9.21075 124.7 10.6388C124.403 10.8693 124.087 11.058 123.997 11.058C123.907 11.058 123.452 10.49 122.986 9.79562C120.944 6.75352 115.055 2.11774 111.5 0.7546C110.157 0.239114 108.458 -0.134238 108.276 0.0459471ZM113.202 2.68515C117.374 5.06202 122.002 9.27298 122.975 11.5789C123.392 12.5655 123.74 12.604 124.723 11.7725C125.927 10.7543 129.871 8.46494 132.073 7.50672C134.005 6.66533 139.288 5.29414 139.56 5.56318C139.63 5.63212 139.567 6.32891 139.421 7.1121C139.045 9.13152 139.089 10.1238 139.632 11.8739C140.664 15.1956 142.074 17.7159 144.122 19.8994C146.197 22.1115 147.2 23.8429 147.947 26.5025C148.72 29.254 149.749 34.7106 150.036 37.5821C150.337 40.5851 150.12 42.6929 148.997 47.642C148.239 50.9854 146.275 55.2136 144.67 56.9566C142.03 59.8241 141.343 60.5243 141.254 60.4367C141.203 60.3855 141.491 59.5535 141.896 58.5877C142.564 56.9917 142.639 56.5768 142.717 54.0338C142.764 52.495 142.71 50.279 142.597 49.1095C142.347 46.5193 142.721 43.5381 143.61 41.0336C143.97 40.0186 144.148 39.1705 144.051 38.9222C143.606 37.774 142.417 40.5779 141.866 44.0733C141.711 45.0581 141.522 45.9324 141.445 46.0161C141.368 46.0998 140.366 45.5459 139.219 44.7851C129.833 38.5652 120.434 28.0044 119.508 22.6389C119.248 21.1289 118.783 21.3187 117.803 23.3348C115.505 28.0668 109.352 34.3258 102.386 39.0182C99.2825 41.1088 93.8869 44.2053 90.8659 45.6296C82.6185 49.5182 77.1009 51.2164 68.2745 52.5831C67.5362 52.6975 67.5312 52.6606 68.074 51.1032C69.1412 48.0411 69.9248 46.5256 72.1077 43.3015C74.2435 40.1468 74.6574 39.2609 73.9957 39.2609C73.197 39.2609 68.3754 44.7971 65.6137 48.8857C63.0948 52.6147 62.2913 54.1853 61.5491 56.8317C60.7471 59.6907 60.7372 59.6988 60.4356 57.7232C60.2858 56.7406 60.1063 55.1306 60.0369 54.1457C59.7823 50.5293 61.4608 44.4104 64.0583 39.4867C64.8803 37.9286 64.9693 37.6318 64.6927 37.3693C64.3737 37.0662 59.8907 36.1272 58.7634 36.1272C58.44 36.1272 58.1228 36.0431 58.0583 35.9401C57.994 35.8371 58.2484 35.0063 58.6235 34.0935C62.1756 25.4518 71.243 16.4284 80.8895 11.9359C89.5809 7.88835 99.4934 6.91804 107.09 9.37101C108.057 9.68326 108.902 9.93888 108.967 9.93888C109.031 9.93888 109.232 9.58947 109.412 9.16263C109.827 8.1809 109.823 6.3833 109.401 3.67158C108.908 0.509727 108.847 0.686105 110.249 1.22375C110.903 1.47444 112.232 2.13206 113.202 2.68515ZM219.068 1.78199C225.83 2.62651 231.857 4.81312 237.159 8.34564C244.358 13.1421 249.503 19.5914 252.165 27.1574C253.482 30.8999 253.898 33.2676 254.035 37.806C254.139 41.2546 254.088 42.222 253.684 44.5209C253.22 47.1579 251.989 51.4667 251.574 51.9074C251.438 52.052 251.006 51.7216 250.354 50.974C249.183 49.6324 246.249 47.4041 243.414 45.7034C240.496 43.9535 239.039 42.718 237.532 40.7158C235.122 37.5123 233.701 34.0534 233.376 30.5972C233.246 29.2068 233.288 28.9057 233.707 28.2351C233.971 27.8123 234.12 27.4007 234.039 27.3201C233.631 26.917 233.048 27.2894 232.268 28.4509C230.946 30.4209 227.284 34.016 225.255 35.3367C223.149 36.7074 219.214 38.8031 217.503 39.4661C216.046 40.0306 211.825 40.9978 209.529 41.2928C202.002 42.2605 200.167 42.3381 196.949 41.8258C194.597 41.4515 193.923 41.2577 190.215 39.8901L187.759 38.9845L187.16 39.4225C186.257 40.0837 183.636 43.2265 182.727 44.7396C181.811 46.2632 181.725 47.1436 182.252 49.6028C182.82 52.2539 184.336 56.3561 185.414 58.1601C185.991 59.1249 186.432 59.9445 186.394 59.9815C186.357 60.0186 185.324 59.6486 184.1 59.1593C179.734 57.4141 178.398 56.1461 176.812 52.244C172.081 40.6003 173.387 28.5353 180.497 18.2207C186.46 9.56978 196.947 3.28211 207.718 1.89928C208.776 1.76341 209.896 1.6168 210.207 1.57338C211.748 1.35805 216.585 1.47198 219.068 1.78199ZM33.2648 3.13057C32.8328 3.31591 32.3033 3.62547 32.0877 3.81819C31.7304 4.13827 31.643 4.12752 31.0889 3.69642C30.3485 3.1205 28.9521 3.07126 28.1473 3.59279C26.9896 4.34307 26.5957 5.97884 27.2643 7.25804C27.5727 7.84828 28.7428 8.89627 31.0796 10.676C31.531 11.0198 31.9003 11.4858 31.9003 11.7116C31.9003 11.9375 32.0462 12.2421 32.2246 12.3885C32.5986 12.6958 32.545 12.7692 34.4274 9.3793C36.6309 5.4112 36.8173 4.44044 35.5918 3.3168C34.9159 2.69724 34.3756 2.65404 33.2648 3.13057ZM35.0229 3.94018C35.6011 4.51207 35.3092 5.73285 34.0217 8.12942C33.3216 9.43235 32.7095 10.5414 32.6615 10.594C32.6135 10.6466 32.2954 10.4349 31.9546 10.1233C31.6136 9.81197 30.8587 9.24052 30.2772 8.85374C27.6327 7.09464 27.0946 5.18468 28.9732 4.22377C29.6043 3.90101 29.6975 3.90705 30.2677 4.30928C30.6055 4.54743 31.076 4.95481 31.3131 5.21423C31.8734 5.82753 32.0904 5.8094 32.3529 5.12649C32.578 4.54094 33.799 3.67382 34.4007 3.67247C34.5937 3.67203 34.8736 3.79245 35.0229 3.94018ZM290.808 13.8024C289.813 14.1176 287.119 16.6109 285.671 18.5564C283.388 21.6231 280.911 26.083 280.358 28.1212C280.082 29.1396 279.675 29.3812 279.675 28.5266C279.675 27.8741 277.749 24.246 276.855 23.2146C276.408 22.6989 275.485 22.007 274.803 21.6769C273.764 21.1741 273.343 21.0927 272.204 21.1741C271.032 21.2578 270.736 21.376 270.051 22.0325C269.603 22.4618 269.149 23.187 269.01 23.6967C268.362 26.0593 269.668 30.8193 272.604 36.7987C274.82 41.3116 276.595 43.7404 277.222 43.1193C277.371 42.9722 277.136 42.4908 276.527 41.6946C273.867 38.2174 270.393 30.0728 269.838 26.0109C269.449 23.1649 271.135 21.5421 273.756 22.2402C276.333 22.9265 278.806 27.1189 279.439 31.8744C279.748 34.1962 279.801 34.3603 280.199 34.2092C280.423 34.1242 280.552 33.4927 280.644 32.0307C280.81 29.4064 281.444 27.4083 283.002 24.5999C285.954 19.2807 289.374 15.2032 291.336 14.6644C293.634 14.0334 295.959 14.7425 297.435 16.5245C298.486 17.7927 298.915 18.8803 299.065 20.6569C299.426 24.9191 296.382 30.7873 287.483 42.9879C284.01 47.7502 278.428 56.2692 276.911 59.1228C276.664 59.5862 276.18 60.4186 275.834 60.9726C272.192 66.8126 269.12 73.6379 268.229 77.8719C267.793 79.9433 265.766 85.9563 265.186 86.8964C264.914 87.3382 264.341 87.8056 263.773 88.0505C262.497 88.5995 255.912 90.0417 253.337 90.3362C248.584 90.8795 234.122 90.0625 227.537 88.8791C227.129 88.8057 227.148 89.5915 227.561 89.7999C228.881 90.4674 240.683 91.4137 247.687 91.4137C252.821 91.4137 253.317 91.3761 256.612 90.7353C260.328 90.013 264.683 88.8764 265.691 88.3658C266.027 88.1955 266.344 88.0563 266.395 88.0563C266.446 88.0563 266.445 89.6932 266.394 91.6935C266.299 95.3552 266.4 96.3548 267.338 101.039C267.548 102.085 267.764 103.168 267.818 103.445C267.938 104.054 268.384 104.093 268.892 103.539C269.34 103.048 269.368 102.691 268.976 102.449C268.697 102.276 268.269 100.747 267.641 97.6811C267.326 96.1462 267.232 88.8515 267.514 87.8174C267.6 87.5016 267.926 87.1072 268.24 86.9414C268.553 86.7755 269.167 86.1266 269.603 85.4994C270.239 84.5862 270.397 84.1464 270.397 83.2907C270.397 81.8319 269.899 80.7231 269.161 80.54C268.753 80.4386 268.608 80.2824 268.687 80.0283C268.75 79.8271 268.962 78.9669 269.16 78.1163C270.094 74.0912 272.421 68.7563 275.612 63.3228C276.768 61.3531 278.037 59.1875 278.431 58.5104C281.157 53.8227 285.803 46.8801 289.741 41.6111C299.996 27.8866 302.321 20.3999 297.795 15.6712C296.168 13.9726 295.187 13.5247 293.138 13.5479C292.267 13.5578 291.218 13.6724 290.808 13.8024ZM119.017 24.3984C119.017 24.8752 120.709 27.9325 121.915 29.6361C125.842 35.1829 132.904 41.8717 138.817 45.6464C139.812 46.2818 140.743 46.9435 140.884 47.1163C141.08 47.3555 141.017 47.9133 140.622 49.4452C137.85 60.1941 130.027 69.7701 119.761 74.9807C113.365 78.2271 107.836 79.5659 100.802 79.5717C96.6514 79.5753 93.9614 79.2353 90.7326 78.299C81.9358 75.7486 74.9633 70.1969 70.9726 62.5652C69.4715 59.6945 67.4975 53.5861 68.0709 53.5861C68.5752 53.5861 73.7176 52.6002 75.7983 52.1044C85.9156 49.6944 97.8574 43.8519 106.759 36.9574C111.409 33.356 115.974 28.5402 117.882 25.2241C118.625 23.9317 119.017 23.6468 119.017 24.3984ZM5.2522 25.9223C4.46 26.6303 4.35818 26.6632 3.83729 26.378C3.05595 25.95 2.49252 25.9832 1.62248 26.5078C0.762846 27.0262 0.0075297 28.4775 6.25225e-05 29.6247C-0.00401048 30.266 0.189004 30.5769 1.14118 31.4612C2.36354 32.5963 4.71366 33.8889 5.55496 33.8889C5.98127 33.8889 6.2691 33.4679 7.32084 31.3043C8.7172 28.4319 8.95954 27.5665 8.61764 26.677C7.97659 25.0088 6.61576 24.7037 5.2522 25.9223ZM7.34143 26.3572C7.99334 26.8288 7.67745 28.5937 6.56824 30.6765C6.06432 31.6226 5.65204 32.5311 5.65204 32.6952C5.65204 33.1829 5.1359 33.0424 3.66599 32.1542C1.53468 30.8665 1.12647 30.4392 1.12647 29.4962C1.12647 28.4755 1.89288 27.2169 2.62511 27.0352C3.34807 26.8557 4.01401 27.4443 4.20046 28.4279C4.35478 29.2415 4.81775 29.7576 5.18952 29.5302C5.31941 29.4508 5.42576 28.8695 5.42576 28.2383C5.42576 27.3682 5.54478 26.9656 5.91769 26.5727C6.48406 25.9767 6.75786 25.935 7.34143 26.3572ZM233.267 34.8012C233.957 36.927 235.432 39.6327 237.034 41.7107C238.236 43.2697 240.167 44.8737 242.591 46.325C246.99 48.96 249.356 50.904 250.812 53.0796C251.286 53.7878 251.458 54.4166 251.636 56.0754C251.868 58.255 251.738 62.4194 251.371 64.5539C250.734 68.2545 248.724 72.4849 246.868 74.0294C245.041 75.5506 240.228 77.4032 236.003 78.2117C234.685 78.4642 232.139 78.6844 229.419 78.7816L224.984 78.94L224.84 78.406C224.761 78.1123 224.694 76.8298 224.692 75.5561C224.689 72.7714 224.824 72.4863 226.893 70.9331C229.723 68.8083 234.506 63.7448 238.64 58.495C242.178 54.0029 245.299 48.7699 244.76 48.2361C244.286 47.7676 244.031 48.0322 243.052 50.0089C241.173 53.7992 238.056 58.007 232.687 63.9999C228.359 68.8304 225.287 71.3797 222.496 72.4561C220.42 73.2565 217.153 73.731 213.715 73.731C210.842 73.731 210.004 73.6419 207.511 73.0723C202.632 71.9569 200.342 70.9103 195.952 67.7892C192.223 65.1377 190.022 63.1934 188.477 61.1863C187.735 60.2216 187.127 59.3874 187.127 59.3328C187.127 59.2782 186.668 58.4413 186.106 57.473C185.532 56.4823 184.669 54.4401 184.134 52.8027C183.31 50.2813 183.182 49.623 183.175 47.8706C183.168 45.9577 183.209 45.7802 183.941 44.5845C184.367 43.8893 185.388 42.5924 186.211 41.7022L187.708 40.0837L191.434 41.3322C196.044 42.8769 199.792 43.4374 202.961 43.0557C209.884 42.2222 211.61 41.9415 215.108 41.0793C217.956 40.3771 218.518 40.1482 222.313 38.1446C225.824 36.2911 227.097 35.3597 229.781 32.6804L232.27 30.1957L232.421 31.4268C232.504 32.1039 232.885 33.6223 233.267 34.8012ZM27.9594 44.5263C26.392 45.1148 24.8366 46.4712 23.891 48.074C23.0435 49.5102 22.9906 49.5549 22.5333 49.2275C20.1449 47.518 18.0462 47.3876 16.0982 48.8275C14.8731 49.7329 14.4787 50.579 14.4778 52.304C14.4769 53.7753 14.5052 53.8507 15.4386 54.8618C18.012 57.6496 18.8004 58.2494 20.8127 58.9512C22.6179 59.5808 25.6525 61.0581 26.6242 61.7802C27.68 62.5649 28.2396 62.4976 28.2169 61.5881C28.2047 61.0984 28.5193 60.3488 29.1795 59.2938C32.3506 54.2285 33.7148 50.9362 33.7055 48.3704C33.7001 46.8495 33.1933 45.4776 32.3682 44.7513C31.7138 44.1749 29.2323 44.0482 27.9594 44.5263ZM32.2162 46.0481C32.8966 46.9515 32.8627 49.5822 32.1454 51.5365C31.6091 52.9975 29.6583 56.72 28.2129 59.0405C27.7628 59.763 27.3555 60.4681 27.3078 60.6073C27.2544 60.7629 26.094 60.3302 24.2996 59.4857C22.6928 58.7293 20.9202 57.9477 20.3601 57.7487C19.224 57.3452 18.5555 56.8039 16.6716 54.7633C15.4345 53.4232 15.382 53.3166 15.382 52.1502C15.382 51.1555 15.4933 50.8037 15.9936 50.2155C16.3301 49.8199 16.9379 49.3588 17.3441 49.191C19.2428 48.4062 22.0377 49.2783 22.6433 50.8442C22.951 51.6401 23.2298 51.449 23.9555 49.9451C24.9671 47.848 25.8775 46.7362 27.2019 45.9794C28.2765 45.3657 28.5568 45.3048 30.0665 45.3576C31.6075 45.4116 31.7781 45.4664 32.2162 46.0481ZM180.411 58.4811C181.01 58.8466 182.81 59.6652 184.41 60.3002C187.232 61.4205 187.36 61.5011 188.703 62.9954C192.263 66.9583 199.279 71.638 203.815 73.0754C204.839 73.4 205.456 73.7154 205.456 73.9146C205.456 74.0903 204.841 75.4926 204.089 77.0308L202.723 79.8275L196.226 79.7167C189.568 79.603 188.081 79.4464 184.072 78.4373C179.1 77.1856 176.569 75.399 175.686 72.5192C175.494 71.8931 175.221 69.895 175.078 68.0793C174.762 64.0742 174.983 62.1329 176.214 58.1078L177.056 55.3549L178.188 56.5857C178.811 57.2628 179.811 58.1156 180.411 58.4811ZM67.8566 57.1462C68.3385 58.7161 68.4745 61.3155 68.1211 62.2037C67.9799 62.5587 67.8844 62.3964 67.6595 61.4203C67.3626 60.131 67.0524 55.6006 67.2612 55.6006C67.3275 55.6006 67.5955 56.2961 67.8566 57.1462ZM163.224 69.1438C163.797 69.7108 163.867 70.3243 163.5 71.55C163.134 72.7728 161.896 75.0769 161.61 75.0702C161.338 75.0639 160.423 72.7721 160.425 72.1011C160.428 70.7695 161.656 68.8067 162.486 68.8067C162.704 68.8067 163.036 68.9585 163.224 69.1438ZM223.784 75.7462C223.784 78.4984 224.84 86.0991 225.634 89.0635C225.898 90.0484 226.648 92.3147 227.3 94.0997C227.952 95.8848 228.66 97.8982 228.873 98.5739C230.057 102.339 236.32 113.822 237.891 115.111C238.097 115.28 238.266 115.532 238.266 115.671C238.266 116.393 230.114 122.493 227.405 123.799C224.268 125.311 219.61 126.682 214.167 127.696C210.34 128.408 204.27 128.404 200.364 127.686C193.959 126.508 189.377 124.453 182.989 119.893C180.248 117.937 179.119 116.833 178.875 115.872C178.712 115.228 179.231 114.584 183.537 110.099C185.076 108.496 187.211 106.028 188.282 104.615C192.269 99.3531 194.105 96.8553 195.104 95.3308C198.73 89.7984 199.817 87.9625 201.595 84.363C204.05 79.3937 205.865 75.643 206.279 74.6823C206.645 73.834 206.452 73.8651 208.7 74.2906C212.236 74.9601 219.651 74.6071 222.313 73.6428C223.826 73.0949 223.784 73.0353 223.784 75.7462ZM49.3373 75.4534C50.1374 75.9208 51.1557 77.7819 51.8089 79.971C52.08 80.8791 52.3626 81.7791 52.4368 81.9709C52.6398 82.4936 50.5205 81.2204 48.6376 79.6881C47.2343 78.5461 46.1558 77.1241 46.1558 76.4157C46.1558 76.282 46.4059 75.9257 46.7113 75.6235C47.3723 74.9695 48.396 74.9032 49.3373 75.4534ZM121.076 77.9746C120.936 79.026 120.8 82.052 120.774 84.6988C120.73 89.2267 120.77 89.7587 121.459 93.6957C122.537 99.863 122.964 101.767 123.962 104.856C126.294 112.079 126.739 114.027 126.259 114.915L125.982 115.428L121.538 115.282C119.094 115.201 115.077 115.071 112.611 114.993C110.145 114.915 104.369 114.977 99.7749 115.131C90.9573 115.428 90.3798 115.401 85.1741 114.455C81.2755 113.747 81.2292 113.699 81.2285 110.369C81.2278 106.94 81.6747 105.028 84.6654 95.6666C85.039 94.497 85.6816 92.2811 86.0935 90.7423C86.5055 89.2034 87.0649 87.34 87.3369 86.6014C88.063 84.6299 90.0959 79.6879 90.2558 79.5057C90.3314 79.4195 91.819 79.6057 93.5613 79.9197C97.9373 80.7083 103.575 80.7486 107.699 80.0207C111.018 79.4352 115.646 77.9563 118.871 76.4506C120.71 75.5922 121.183 75.4469 121.249 75.7207C121.294 75.9089 121.217 76.9231 121.076 77.9746ZM269.258 81.998C269.704 82.822 269.527 84.0094 268.803 85.0502C267.855 86.4129 267.594 86.3372 267.786 84.7547C268.136 81.8807 268.662 80.8959 269.258 81.998ZM266.629 86.611C266.555 86.801 266.446 86.9085 266.387 86.8498C266.328 86.7912 266.346 86.6356 266.428 86.5044C266.651 86.1472 266.782 86.2166 266.629 86.611ZM99.4443 89.2851C97.5997 89.925 96.2162 92.2354 96.6192 94.003C96.8982 95.2261 97.7318 96.2488 100.695 99.0017C102.917 101.067 103.509 101.507 103.92 101.4C104.542 101.236 109.161 96.7875 110.057 95.4884C110.419 94.9648 110.848 94.025 111.012 93.3998C111.268 92.4259 111.261 92.147 110.969 91.4547C110.527 90.4074 110.047 89.8971 109.014 89.3755C107.508 88.6152 105.319 88.899 104.024 90.0226C103.662 90.3369 103.578 90.3239 103.099 89.8785C102.586 89.4015 101.378 88.9415 100.69 88.9614C100.503 88.9668 99.9421 89.1125 99.4443 89.2851ZM108.63 90.1936C109.33 90.5516 110.191 91.7193 110.19 92.3091C110.188 93.8692 108.869 95.7662 105.808 98.6079L103.673 100.59L101.067 98.0495C99.6333 96.6525 98.2493 95.167 97.9916 94.7486C97.144 93.3734 97.4827 91.8265 98.8879 90.657C99.4599 90.1809 99.8247 90.0708 100.831 90.0708C101.97 90.0708 102.131 90.137 102.838 90.9001L103.606 91.7293L104.183 91.1136C105.31 89.91 107.279 89.5027 108.63 90.1936ZM113.813 115.819C116.115 115.946 118.421 116.102 118.938 116.165C119.99 116.294 120.094 116.453 120.711 118.888C120.906 119.657 121.415 121.319 121.841 122.581C122.267 123.844 122.683 125.289 122.763 125.793L122.91 126.709L120.229 126.979C116.266 127.378 112.001 127.499 109.071 127.295L106.479 127.115L105.081 122.862C104.098 119.872 103.574 118.588 103.317 118.537C103.116 118.497 102.948 118.598 102.943 118.761C102.938 118.924 102.899 119.561 102.857 120.176C102.814 120.792 102.711 122.504 102.627 123.981C102.412 127.752 102.473 127.595 101.131 127.88C99.2572 128.277 94.1175 128.175 91.0487 127.68C86.8809 127.008 86.9087 127.025 87.1337 125.274C87.3837 123.329 88.189 118.938 88.4585 118.051C88.5893 117.621 88.6961 117.012 88.6961 116.698V116.127L92.1469 116.199C94.0446 116.238 98.3978 116.131 101.82 115.96C105.243 115.79 108.399 115.636 108.835 115.618C109.27 115.601 111.511 115.691 113.813 115.819ZM216.097 143.244C218.162 144.705 219.214 146.178 218.946 147.235C218.501 148.989 216.957 149.427 215.173 148.307C213.26 147.104 212.405 145.238 212.108 141.618L211.956 139.764L213.068 140.826C213.679 141.41 215.043 142.498 216.097 143.244ZM194.673 142.28C193.493 144.531 190.827 147.18 189.333 147.586C187.307 148.136 185.435 147.562 184.854 146.211C184.331 144.994 185.111 143.669 186.866 142.792C187.282 142.584 189.051 142.166 190.797 141.864C192.543 141.561 194.238 141.17 194.565 140.994C194.893 140.819 195.242 140.671 195.342 140.666C195.442 140.661 195.141 141.387 194.673 142.28ZM115.899 144.332C116.242 144.961 115.59 145.381 114.675 145.121C113.237 144.713 112.556 143.995 112.223 142.533L112.062 141.825L113.863 142.864C114.854 143.435 115.77 144.096 115.899 144.332ZM92.4557 143.679C92.2548 143.986 91.9317 144.481 91.7375 144.778C90.8883 146.08 88.2641 146.476 87.2355 145.459C86.9187 145.146 86.6596 144.846 86.6596 144.793C86.6596 144.494 88.1768 144.014 89.8359 143.789C90.8842 143.647 91.8968 143.441 92.0858 143.332C92.6951 142.979 92.8302 143.105 92.4557 143.679Z" fill="black"/>
    <path fill-rule="evenodd" clip-rule="evenodd" d="M207.351 90.1101C205.507 90.7501 204.123 93.0605 204.526 94.8281C204.805 96.0511 205.639 97.0738 208.601 99.8267C210.824 101.892 211.416 102.332 211.827 102.225C212.449 102.061 217.068 97.6125 217.964 96.3134C218.325 95.7899 218.755 94.85 218.919 94.2249C219.175 93.251 219.168 92.9721 218.876 92.2797C218.434 91.2324 217.954 90.7221 216.92 90.2006C215.414 89.4402 213.226 89.724 211.931 90.8477C211.569 91.1619 211.485 91.1489 211.006 90.7035C210.492 90.2265 209.284 89.7666 208.597 89.7865C208.41 89.7919 207.849 89.9376 207.351 90.1101ZM218.097 93.1341C218.098 92.5443 217.237 91.3766 216.537 91.0187C215.186 90.3277 213.217 90.7351 212.089 91.9386L211.513 92.5544L210.744 91.7251C210.038 90.9621 209.877 90.8958 208.738 90.8958C207.732 90.8958 207.367 91.0059 206.795 91.482C205.39 92.6515 205.051 94.1984 205.898 95.5737C206.156 95.992 207.54 97.4776 208.974 98.8745L211.58 101.415L213.715 99.433C216.775 96.5912 218.095 94.6942 218.097 93.1341Z" fill="black"/>
</svg>